<svg xmlns="http://www.w3.org/2000/svg" viewBox="0 0 640 420" role="img" aria-label="Miguel e Leticia">
  <rect width="640" height="420" fill="#A8DCAB"/>
  <path d="M82 334c58-108 89-162 93-162 6 0 21 51 45 154 52-104 84-156 97-156 15 0 29 52 42 156 44-81 87-132 130-153 30-14 52-14 66 2 15 18 11 43-13 75-23 31-58 58-105 80 32 30 72 45 120 45" fill="none" stroke="#172E1E" stroke-width="14" stroke-linecap="round" stroke-linejoin="round"/>
  <text x="320" y="96" fill="#172E1E" font-family="Georgia, 'Times New Roman', serif" font-size="34" text-anchor="middle">Miguel &amp; Leticia</text>
</svg>
