<svg width="425" height="361" viewBox="0 0 425 361" fill="none" xmlns="http://www.w3.org/2000/svg">
<path d="M371.457 39.368C380.843 39.368 390.017 40.6053 398.977 43.08C407.937 45.5547 416.555 49.864 424.833 56.008L423.169 57.8C415.659 52.168 407.638 48.1573 399.105 45.768C390.657 43.2933 381.91 42.056 372.865 42.056C356.907 42.056 341.206 45.5547 325.761 52.552C316.459 56.7333 307.969 61.896 300.289 68.04C292.609 74.184 285.739 80.712 279.681 87.624C276.097 92.1467 272.47 97.096 268.801 102.472C265.217 107.763 261.718 113.267 258.305 118.984C254.891 124.701 251.606 130.419 248.449 136.136C245.291 141.853 242.39 147.272 239.745 152.392C236.843 157.768 233.174 163.357 228.737 169.16C224.385 174.963 219.35 180.296 213.633 185.16C207.915 190.024 201.558 194.035 194.561 197.192C187.563 200.435 180.011 202.056 171.905 202.056V200.264C176.854 199.667 181.547 198.003 185.985 195.272C190.507 192.627 194.689 189.384 198.529 185.544C202.454 181.619 206.081 177.395 209.409 172.872C212.737 168.264 215.809 163.827 218.625 159.56C222.806 152.989 227.073 146.376 231.425 139.72C235.862 133.064 240.427 126.536 245.121 120.136C249.899 113.651 254.849 107.379 259.969 101.32C265.174 95.176 270.593 89.3733 276.225 83.912C283.307 77 290.859 70.6853 298.881 64.968C306.987 59.2507 315.606 54.344 324.737 50.248C326.187 49.5653 327.638 48.9253 329.089 48.328C330.625 47.7307 332.203 47.176 333.825 46.664C332.118 47.0907 330.454 47.5173 328.833 47.944C327.297 48.3707 325.761 48.7973 324.225 49.224C314.411 52.2107 304.769 56.0933 295.297 60.872C285.825 65.6507 276.865 71.0693 268.417 77.128C259.371 83.9547 250.454 91.848 241.665 100.808C232.875 109.683 224.811 119.027 217.473 128.84C212.097 136.349 206.891 144.328 201.857 152.776C196.822 161.224 192.129 169.843 187.777 178.632H185.857C184.321 171.976 183.553 165.235 183.553 158.408C183.553 153.373 183.937 148.253 184.705 143.048C185.558 137.843 186.71 132.723 188.161 127.688C189.697 122.568 191.489 117.619 193.537 112.84C195.585 108.061 197.846 103.539 200.321 99.272C203.222 94.408 206.422 89.8427 209.921 85.576C213.505 81.224 217.345 77.384 221.441 74.056C225.537 70.6427 229.846 67.784 234.369 65.48C238.891 63.0907 243.627 61.384 248.577 60.36H248.321C242.091 60.36 236.033 61.6827 230.145 64.328C224.342 66.9733 218.71 70.5147 213.249 74.952C207.787 79.3893 202.539 84.552 197.505 90.44C192.555 96.328 187.819 102.557 183.297 109.128C178.774 115.699 174.465 122.355 170.369 129.096C166.358 135.837 162.603 142.323 159.105 148.552C158.422 149.917 157.611 151.368 156.673 152.904C155.734 154.355 154.923 155.763 154.241 157.128C149.121 166.003 143.617 173.896 137.729 180.808C131.926 187.72 125.398 193.523 118.145 198.216C110.977 202.995 102.998 206.621 94.2086 209.096C85.4193 211.656 75.606 212.936 64.7686 212.936C56.2353 212.936 48.0433 211.784 40.1926 209.48C32.4273 207.176 25.558 203.635 19.5846 198.856C13.6113 194.163 8.83263 188.189 5.24863 180.936C1.74996 173.597 0.000624955 164.893 0.000624955 154.824C0.000624955 146.291 1.49396 137.928 4.48063 129.736C7.55263 121.459 11.6913 113.779 16.8966 106.696C22.1873 99.528 28.374 93.1707 35.4566 87.624C42.5393 81.992 50.0913 77.512 58.1126 74.184C65.366 71.4533 72.6193 69.7467 79.8726 69.064C84.054 61.2133 89.302 54.472 95.6166 48.84C101.931 43.1227 108.929 38.472 116.609 34.888C124.289 31.2187 132.438 28.5307 141.057 26.824C149.761 25.032 158.55 24.136 167.425 24.136C172.459 24.136 177.537 24.4347 182.657 25.032C187.862 25.544 192.939 26.3547 197.889 27.464C202.923 28.488 207.83 29.768 212.609 31.304C217.387 32.7547 221.91 34.376 226.177 36.168C232.577 39.0693 238.849 42.44 244.993 46.28C251.222 50.12 257.067 54.344 262.529 58.952H262.401C262.571 59.0373 262.699 59.1227 262.785 59.208C262.955 59.3787 263.083 59.464 263.169 59.464C263.766 60.0613 264.107 60.36 264.193 60.36C264.363 60.36 264.534 60.4453 264.705 60.616L263.937 62.792C262.827 62.4507 261.846 62.2373 260.993 62.152C260.225 62.0667 259.499 62.024 258.817 62.024C253.697 62.024 248.747 63.3467 243.969 65.992C239.275 68.6373 234.838 71.9653 230.657 75.976C226.561 79.9867 222.806 84.424 219.393 89.288C215.979 94.152 213.035 98.8027 210.561 103.24C207.489 108.872 204.673 114.76 202.113 120.904C199.553 127.048 197.291 133.107 195.329 139.08C193.451 145.053 191.915 150.856 190.721 156.488C189.526 162.12 188.801 167.24 188.545 171.848C192.641 163.741 196.95 155.976 201.473 148.552C205.995 141.128 210.731 134.045 215.681 127.304C223.19 116.979 231.211 107.464 239.745 98.76C248.363 90.056 257.451 82.2053 267.009 75.208C275.542 68.9787 284.63 63.4747 294.273 58.696C303.915 53.832 313.686 49.9067 323.585 46.92C326.401 45.9813 329.345 45.1707 332.417 44.488C335.489 43.8053 338.475 43.1653 341.377 42.568C346.155 41.6293 351.147 40.8613 356.353 40.264C361.643 39.6667 366.678 39.368 371.457 39.368ZM248.449 57.8C250.155 57.8 251.862 57.8853 253.569 58.056C255.275 58.2267 256.982 58.4827 258.689 58.824C248.534 50.7173 237.398 43.9333 225.281 38.472C221.185 36.7653 216.875 35.2293 212.353 33.864C207.83 32.4133 203.222 31.2187 198.529 30.28C193.835 29.256 189.099 28.488 184.321 27.976C179.627 27.3787 175.019 27.08 170.497 27.08C162.134 27.08 153.899 27.8907 145.793 29.512C137.686 31.1333 130.006 33.6507 122.753 37.064C115.585 40.4773 109.014 44.8293 103.041 50.12C97.1526 55.3253 92.1606 61.512 88.0646 68.68H89.7286C99.03 68.68 108.203 70.0453 117.249 72.776C126.294 75.4213 135.595 79.176 145.153 84.04L144.641 85.192C136.193 81.608 127.787 78.8347 119.425 76.872C111.062 74.824 102.23 73.8 92.9286 73.8C91.6486 73.8 90.326 73.8 88.9606 73.8C87.6806 73.8 86.4433 73.8853 85.2486 74.056C83.542 77.896 82.0913 81.864 80.8966 85.96C79.7873 89.9707 79.2326 94.1947 79.2326 98.632C79.2326 104.264 80.1713 109.597 82.0486 114.632C83.926 119.667 86.5713 124.061 89.9846 127.816C93.4833 131.485 97.6646 134.429 102.529 136.648C107.393 138.781 112.854 139.848 118.913 139.848C133.761 139.848 145.622 133.619 154.497 121.16L155.521 121.8C153.643 125.213 151.425 128.328 148.865 131.144C146.39 133.96 143.574 136.392 140.417 138.44C137.345 140.488 134.017 142.067 130.433 143.176C126.849 144.285 123.009 144.84 118.913 144.84C112.342 144.84 106.198 143.816 100.481 141.768C94.7633 139.635 89.7713 136.605 85.5046 132.68C81.238 128.755 77.8673 123.933 75.3926 118.216C73.0033 112.499 71.8086 106.056 71.8086 98.888C71.8086 94.9627 72.2353 90.9947 73.0886 86.984C74.0273 82.888 75.222 79.048 76.6726 75.464C74.1126 75.976 71.51 76.616 68.8646 77.384C66.2193 78.152 63.4033 79.1333 60.4166 80.328C53.2486 83.4853 46.422 87.624 39.9366 92.744C33.4513 97.864 27.734 103.752 22.7846 110.408C17.8353 117.064 13.8673 124.317 10.8806 132.168C7.97929 139.933 6.52863 148.083 6.52863 156.616C6.52863 164.893 7.93663 172.275 10.7526 178.76C13.5686 185.245 17.4086 190.749 22.2726 195.272C27.1366 199.795 32.7686 203.251 39.1686 205.64C45.5686 208.029 52.3526 209.224 59.5206 209.224C67.2006 209.224 74.582 207.859 81.6646 205.128C88.8326 202.397 95.6166 198.813 102.017 194.376C108.417 189.939 114.39 184.904 119.937 179.272C125.569 173.64 130.689 167.965 135.297 162.248C137.686 159.176 140.203 155.763 142.849 152.008C145.579 148.253 148.31 144.413 151.041 140.488C155.222 134.515 159.617 128.328 164.225 121.928C168.833 115.528 173.654 109.299 178.689 103.24C183.723 97.096 188.971 91.2933 194.433 85.832C199.894 80.2853 205.526 75.464 211.329 71.368C217.131 67.1867 223.105 63.9013 229.249 61.512C235.478 59.0373 241.878 57.8 248.449 57.8Z" fill="white"/>
<path d="M350.395 129.572C354.992 129.896 358.447 131.251 360.759 133.638C363.072 136.025 364.091 139.176 363.815 143.092C363.515 147.348 361.59 152.217 358.039 157.698C354.573 163.186 349.287 169.016 342.18 175.188C340.084 177.008 337.727 178.895 335.109 180.849C332.49 182.804 329.702 184.746 326.743 186.676C323.869 188.612 320.913 190.5 317.875 192.339C314.837 194.179 311.851 195.893 308.916 197.483C304.468 199.907 299.813 202.231 294.952 204.456C290.096 206.595 285.165 208.6 280.157 210.471C275.234 212.349 270.281 214.053 265.297 215.585C260.319 217.031 255.441 218.27 250.664 219.302C250.19 219.953 249.714 220.647 249.234 221.383C248.755 222.119 248.321 222.816 247.932 223.473C244.666 228.546 241.467 233.283 238.335 237.682C235.287 242.087 232.008 246.133 228.498 249.821C224.994 253.424 221.082 256.741 216.762 259.773C212.442 262.805 207.387 265.358 201.595 267.431L201.722 267.44C205.361 270.434 209.207 273.527 213.259 276.721C217.397 279.921 221.719 282.92 226.227 285.718C230.735 288.516 235.404 290.855 240.233 292.735C245.142 294.706 250.107 295.868 255.129 296.222C260.832 296.623 266.41 295.775 271.861 293.678C277.398 291.587 282.891 288.894 288.341 285.6L289.172 286.556C286.767 289.125 284.243 291.556 281.601 293.851C278.953 296.231 276.116 298.255 273.09 299.924C270.149 301.599 267.022 302.876 263.709 303.755C260.397 304.634 256.868 304.941 253.122 304.678C248.781 304.372 244.701 303.4 240.881 301.763C237.055 300.21 233.387 298.241 229.877 295.855C226.366 293.47 222.965 290.749 219.672 287.695C216.459 284.731 213.249 281.725 210.042 278.676C208.198 276.921 206.357 275.123 204.519 273.283C202.675 271.528 200.825 269.858 198.969 268.273C195.639 269.407 192.019 270.393 188.111 271.23C184.287 272.073 180.348 272.736 176.294 273.221C172.324 273.711 168.324 274.028 164.293 274.172C160.263 274.316 156.417 274.259 152.757 274.002C146.883 273.588 141.563 272.615 136.794 271.082C132.026 269.548 127.966 267.68 124.614 265.476C121.341 263.364 118.852 261.05 117.147 258.535C115.442 256.02 114.674 253.57 114.841 251.187C114.967 249.399 115.643 247.693 116.87 246.069C118.102 244.359 119.955 242.95 122.428 241.841C124.993 240.652 128.178 239.764 131.983 239.177C135.874 238.595 140.5 238.493 145.863 238.871C150.034 239.164 154.09 239.878 158.031 241.011C161.971 242.143 165.764 243.565 169.407 245.276C173.051 246.987 176.591 248.947 180.028 251.156C183.466 253.366 186.809 255.697 190.058 258.15L193.471 260.7C197.341 257.978 201.147 254.953 204.889 251.623C208.716 248.3 212.384 244.794 215.895 241.106C218.749 238.228 221.482 235.255 224.093 232.188C226.704 229.121 229.267 226.136 231.781 223.234L233.038 221.783C226.582 222.355 219.906 222.398 213.012 221.912C208.67 221.607 204.307 221 199.923 220.093C195.539 219.185 191.348 217.949 187.352 216.385C183.362 214.735 179.609 212.76 176.093 210.46C172.661 208.165 169.643 205.472 167.038 202.38C164.207 198.844 162.16 195.107 160.898 191.169C159.641 187.145 159.187 182.665 159.534 177.728C159.948 171.855 161.587 166.196 164.451 160.751C167.321 155.222 170.96 150.303 175.37 145.994C178.674 142.804 182.337 139.983 186.36 137.529C190.388 134.989 194.638 132.936 199.112 131.369C203.591 129.717 208.25 128.548 213.088 127.862C217.927 127.176 222.773 127.004 227.625 127.345C231.115 127.591 234.462 128.04 237.667 128.694C240.962 129.268 244.408 130.152 248.002 131.346L247.657 132.605C243.607 131.807 239.837 131.285 236.347 131.039C231.41 130.691 226.436 130.854 221.427 131.528C216.424 132.117 211.51 133.268 206.685 134.982C201.865 136.61 197.265 138.767 192.884 141.452C188.503 144.138 184.467 147.404 180.774 151.25C177.173 155.017 174.052 159.246 171.412 163.936C168.863 168.547 167.391 173.662 166.996 179.28C166.504 186.26 168.232 192.712 172.177 198.635C174.588 202.056 177.418 204.993 180.668 207.445C184.002 209.904 187.618 211.998 191.517 213.727C195.422 215.37 199.479 216.683 203.687 217.663C207.986 218.565 212.264 219.165 216.52 219.465C219.755 219.693 222.913 219.787 225.996 219.747C229.169 219.628 232.264 219.418 235.279 219.117L240.471 212.81C242.802 210.066 245.322 207.078 248.031 203.847C250.739 200.616 253.538 197.306 256.429 193.916C259.41 190.448 262.434 186.982 265.501 183.52C268.653 180.063 271.841 176.695 275.066 173.415C277.836 170.53 281.006 167.417 284.578 164.075C288.234 160.74 292.104 157.419 296.186 154.114C300.359 150.729 304.694 147.484 309.19 144.379C313.771 141.28 318.364 138.609 322.97 136.367C327.668 134.046 332.326 132.278 336.945 131.063C341.571 129.764 346.054 129.267 350.395 129.572ZM340.518 173.274C347.352 167.34 352.45 161.753 355.813 156.515C359.26 151.283 361.119 146.752 361.389 142.921C361.617 139.687 360.772 137.103 358.855 135.172C357.023 133.247 354.192 132.149 350.361 131.879C346.19 131.586 341.874 132.137 337.413 133.534C333.043 134.852 328.634 136.723 324.186 139.147C319.829 141.492 315.525 144.312 311.272 147.605C307.026 150.814 302.983 154.165 299.144 157.658C295.306 161.152 291.722 164.664 288.394 168.194C285.151 171.729 282.315 174.951 279.886 177.86C273.814 185.131 268.444 192.153 263.775 198.925C259.198 205.617 255.41 211.424 252.412 216.346C261.882 214.275 271.275 211.472 280.592 207.936C289.914 204.315 298.933 200.159 307.646 195.469C312.094 193.045 317.274 189.945 323.186 186.169C329.097 182.394 334.875 178.095 340.518 173.274ZM153.174 271.721C160.154 272.213 166.777 271.695 173.044 270.169C179.311 268.643 185.403 265.949 191.321 262.088L188.637 260.103C185.626 257.924 182.398 255.772 178.955 253.647C175.512 251.523 171.965 249.648 168.316 248.022C164.672 246.311 160.922 244.893 157.067 243.766C153.302 242.56 149.505 241.822 145.674 241.552C141.929 241.289 138.627 241.398 135.77 241.882C132.914 242.365 130.507 243.136 128.55 244.196C126.6 245.171 125.102 246.392 124.058 247.858C123.014 249.324 122.435 250.866 122.321 252.483C122.177 254.526 122.672 256.614 123.805 258.747C124.944 260.795 126.733 262.717 129.173 264.514C131.698 266.317 134.925 267.87 138.854 269.173C142.868 270.483 147.641 271.332 153.174 271.721Z" fill="white"/>
</svg>
